G04 MADE WITH FRITZING*
G04 WWW.FRITZING.ORG*
G04 DOUBLE SIDED*
G04 HOLES PLATED*
G04 CONTOUR ON CENTER OF CONTOUR VECTOR*
%ASAXBY*%
%FSLAX23Y23*%
%MOIN*%
%OFA0B0*%
%SFA1.0B1.0*%
%ADD10C,0.008000*%
%ADD11R,0.001000X0.001000*%
%LNSILK0*%
G90*
G70*
G54D10*
X1528Y1029D02*
X1820Y1029D01*
D02*
X1528Y1029D02*
X1261Y863D01*
D02*
X1820Y1029D02*
X2087Y863D01*
D02*
X2087Y863D02*
X2087Y777D01*
D02*
X1261Y863D02*
X1261Y777D01*
D02*
X1261Y430D02*
X1261Y501D01*
D02*
X2087Y430D02*
X2087Y501D01*
G54D11*
X2188Y555D02*
X2206Y555D01*
X2225Y555D02*
X2258Y555D01*
X2291Y555D02*
X2293Y555D01*
X2336Y555D02*
X2359Y555D01*
X2188Y554D02*
X2207Y554D01*
X2225Y554D02*
X2258Y554D01*
X2289Y554D02*
X2294Y554D01*
X2333Y554D02*
X2359Y554D01*
X2188Y553D02*
X2208Y553D01*
X2225Y553D02*
X2258Y553D01*
X2289Y553D02*
X2294Y553D01*
X2331Y553D02*
X2359Y553D01*
X2188Y552D02*
X2208Y552D01*
X2225Y552D02*
X2258Y552D01*
X2288Y552D02*
X2295Y552D01*
X2330Y552D02*
X2359Y552D01*
X2188Y551D02*
X2208Y551D01*
X2225Y551D02*
X2258Y551D01*
X2288Y551D02*
X2295Y551D01*
X2329Y551D02*
X2359Y551D01*
X2188Y550D02*
X2207Y550D01*
X2225Y550D02*
X2258Y550D01*
X2288Y550D02*
X2295Y550D01*
X2328Y550D02*
X2359Y550D01*
X2188Y549D02*
X2206Y549D01*
X2225Y549D02*
X2258Y549D01*
X2288Y549D02*
X2296Y549D01*
X2327Y549D02*
X2359Y549D01*
X2188Y548D02*
X2194Y548D01*
X2225Y548D02*
X2231Y548D01*
X2238Y548D02*
X2244Y548D01*
X2252Y548D02*
X2258Y548D01*
X2287Y548D02*
X2296Y548D01*
X2327Y548D02*
X2336Y548D01*
X2352Y548D02*
X2359Y548D01*
X2188Y547D02*
X2194Y547D01*
X2225Y547D02*
X2231Y547D01*
X2238Y547D02*
X2244Y547D01*
X2252Y547D02*
X2258Y547D01*
X2287Y547D02*
X2296Y547D01*
X2326Y547D02*
X2334Y547D01*
X2353Y547D02*
X2359Y547D01*
X2188Y546D02*
X2194Y546D01*
X2225Y546D02*
X2231Y546D01*
X2238Y546D02*
X2244Y546D01*
X2252Y546D02*
X2258Y546D01*
X2287Y546D02*
X2297Y546D01*
X2326Y546D02*
X2333Y546D01*
X2353Y546D02*
X2359Y546D01*
X2188Y545D02*
X2194Y545D01*
X2225Y545D02*
X2230Y545D01*
X2238Y545D02*
X2244Y545D01*
X2252Y545D02*
X2258Y545D01*
X2286Y545D02*
X2297Y545D01*
X2326Y545D02*
X2332Y545D01*
X2353Y545D02*
X2359Y545D01*
X2188Y544D02*
X2194Y544D01*
X2225Y544D02*
X2230Y544D01*
X2238Y544D02*
X2244Y544D01*
X2253Y544D02*
X2257Y544D01*
X2286Y544D02*
X2297Y544D01*
X2325Y544D02*
X2332Y544D01*
X2353Y544D02*
X2359Y544D01*
X2188Y543D02*
X2194Y543D01*
X2226Y543D02*
X2229Y543D01*
X2238Y543D02*
X2244Y543D01*
X2254Y543D02*
X2256Y543D01*
X2286Y543D02*
X2297Y543D01*
X2325Y543D02*
X2331Y543D01*
X2353Y543D02*
X2359Y543D01*
X2188Y542D02*
X2194Y542D01*
X2238Y542D02*
X2244Y542D01*
X2286Y542D02*
X2298Y542D01*
X2325Y542D02*
X2331Y542D01*
X2353Y542D02*
X2359Y542D01*
X2188Y541D02*
X2194Y541D01*
X2238Y541D02*
X2244Y541D01*
X2285Y541D02*
X2298Y541D01*
X2325Y541D02*
X2331Y541D01*
X2353Y541D02*
X2359Y541D01*
X2188Y540D02*
X2194Y540D01*
X2238Y540D02*
X2244Y540D01*
X2285Y540D02*
X2298Y540D01*
X2325Y540D02*
X2331Y540D01*
X2353Y540D02*
X2359Y540D01*
X2188Y539D02*
X2194Y539D01*
X2238Y539D02*
X2244Y539D01*
X2285Y539D02*
X2299Y539D01*
X2325Y539D02*
X2331Y539D01*
X2353Y539D02*
X2359Y539D01*
X2188Y538D02*
X2194Y538D01*
X2238Y538D02*
X2244Y538D01*
X2284Y538D02*
X2291Y538D01*
X2293Y538D02*
X2299Y538D01*
X2325Y538D02*
X2331Y538D01*
X2353Y538D02*
X2359Y538D01*
X2188Y537D02*
X2194Y537D01*
X2238Y537D02*
X2244Y537D01*
X2284Y537D02*
X2290Y537D01*
X2293Y537D02*
X2299Y537D01*
X2325Y537D02*
X2331Y537D01*
X2353Y537D02*
X2359Y537D01*
X2188Y536D02*
X2194Y536D01*
X2238Y536D02*
X2244Y536D01*
X2284Y536D02*
X2290Y536D01*
X2293Y536D02*
X2299Y536D01*
X2325Y536D02*
X2332Y536D01*
X2353Y536D02*
X2359Y536D01*
X2188Y535D02*
X2194Y535D01*
X2238Y535D02*
X2244Y535D01*
X2284Y535D02*
X2290Y535D01*
X2293Y535D02*
X2300Y535D01*
X2326Y535D02*
X2332Y535D01*
X2353Y535D02*
X2359Y535D01*
X2188Y534D02*
X2194Y534D01*
X2238Y534D02*
X2244Y534D01*
X2283Y534D02*
X2290Y534D01*
X2294Y534D02*
X2300Y534D01*
X2326Y534D02*
X2333Y534D01*
X2353Y534D02*
X2359Y534D01*
X2188Y533D02*
X2194Y533D01*
X2238Y533D02*
X2244Y533D01*
X2283Y533D02*
X2289Y533D01*
X2294Y533D02*
X2300Y533D01*
X2326Y533D02*
X2334Y533D01*
X2353Y533D02*
X2359Y533D01*
X2188Y532D02*
X2194Y532D01*
X2238Y532D02*
X2244Y532D01*
X2283Y532D02*
X2289Y532D01*
X2294Y532D02*
X2301Y532D01*
X2327Y532D02*
X2337Y532D01*
X2352Y532D02*
X2359Y532D01*
X2188Y531D02*
X2194Y531D01*
X2238Y531D02*
X2244Y531D01*
X2282Y531D02*
X2289Y531D01*
X2295Y531D02*
X2301Y531D01*
X2327Y531D02*
X2359Y531D01*
X2188Y530D02*
X2194Y530D01*
X2238Y530D02*
X2244Y530D01*
X2282Y530D02*
X2288Y530D01*
X2295Y530D02*
X2301Y530D01*
X2328Y530D02*
X2359Y530D01*
X2188Y529D02*
X2194Y529D01*
X2238Y529D02*
X2244Y529D01*
X2282Y529D02*
X2288Y529D01*
X2295Y529D02*
X2301Y529D01*
X2329Y529D02*
X2359Y529D01*
X2188Y528D02*
X2194Y528D01*
X2238Y528D02*
X2244Y528D01*
X2281Y528D02*
X2288Y528D01*
X2295Y528D02*
X2302Y528D01*
X2330Y528D02*
X2359Y528D01*
X2188Y527D02*
X2194Y527D01*
X2238Y527D02*
X2244Y527D01*
X2281Y527D02*
X2288Y527D01*
X2296Y527D02*
X2302Y527D01*
X2329Y527D02*
X2359Y527D01*
X2188Y526D02*
X2194Y526D01*
X2238Y526D02*
X2244Y526D01*
X2281Y526D02*
X2287Y526D01*
X2296Y526D02*
X2302Y526D01*
X2328Y526D02*
X2359Y526D01*
X2176Y525D02*
X2179Y525D01*
X2188Y525D02*
X2194Y525D01*
X2238Y525D02*
X2244Y525D01*
X2281Y525D02*
X2287Y525D01*
X2296Y525D02*
X2303Y525D01*
X2327Y525D02*
X2359Y525D01*
X2175Y524D02*
X2180Y524D01*
X2188Y524D02*
X2194Y524D01*
X2238Y524D02*
X2244Y524D01*
X2280Y524D02*
X2287Y524D01*
X2297Y524D02*
X2303Y524D01*
X2326Y524D02*
X2335Y524D01*
X2353Y524D02*
X2359Y524D01*
X2175Y523D02*
X2180Y523D01*
X2188Y523D02*
X2194Y523D01*
X2238Y523D02*
X2244Y523D01*
X2280Y523D02*
X2286Y523D01*
X2297Y523D02*
X2303Y523D01*
X2326Y523D02*
X2333Y523D01*
X2353Y523D02*
X2359Y523D01*
X2174Y522D02*
X2180Y522D01*
X2188Y522D02*
X2194Y522D01*
X2238Y522D02*
X2244Y522D01*
X2280Y522D02*
X2286Y522D01*
X2297Y522D02*
X2304Y522D01*
X2326Y522D02*
X2332Y522D01*
X2353Y522D02*
X2359Y522D01*
X2174Y521D02*
X2180Y521D01*
X2188Y521D02*
X2194Y521D01*
X2238Y521D02*
X2244Y521D01*
X2279Y521D02*
X2286Y521D01*
X2298Y521D02*
X2304Y521D01*
X2325Y521D02*
X2332Y521D01*
X2353Y521D02*
X2359Y521D01*
X2174Y520D02*
X2180Y520D01*
X2188Y520D02*
X2194Y520D01*
X2238Y520D02*
X2244Y520D01*
X2279Y520D02*
X2304Y520D01*
X2325Y520D02*
X2331Y520D01*
X2353Y520D02*
X2359Y520D01*
X2174Y519D02*
X2180Y519D01*
X2188Y519D02*
X2194Y519D01*
X2238Y519D02*
X2244Y519D01*
X2279Y519D02*
X2304Y519D01*
X2325Y519D02*
X2331Y519D01*
X2353Y519D02*
X2359Y519D01*
X2174Y518D02*
X2180Y518D01*
X2188Y518D02*
X2194Y518D01*
X2238Y518D02*
X2244Y518D01*
X2279Y518D02*
X2305Y518D01*
X2325Y518D02*
X2331Y518D01*
X2353Y518D02*
X2359Y518D01*
X2174Y517D02*
X2180Y517D01*
X2188Y517D02*
X2194Y517D01*
X2238Y517D02*
X2244Y517D01*
X2278Y517D02*
X2305Y517D01*
X2325Y517D02*
X2331Y517D01*
X2353Y517D02*
X2359Y517D01*
X2174Y516D02*
X2180Y516D01*
X2188Y516D02*
X2194Y516D01*
X2238Y516D02*
X2244Y516D01*
X2278Y516D02*
X2305Y516D01*
X2325Y516D02*
X2331Y516D01*
X2353Y516D02*
X2359Y516D01*
X2174Y515D02*
X2180Y515D01*
X2188Y515D02*
X2194Y515D01*
X2238Y515D02*
X2244Y515D01*
X2278Y515D02*
X2306Y515D01*
X2325Y515D02*
X2331Y515D01*
X2353Y515D02*
X2359Y515D01*
X2174Y514D02*
X2180Y514D01*
X2188Y514D02*
X2194Y514D01*
X2238Y514D02*
X2244Y514D01*
X2277Y514D02*
X2306Y514D01*
X2325Y514D02*
X2331Y514D01*
X2353Y514D02*
X2359Y514D01*
X2174Y513D02*
X2180Y513D01*
X2188Y513D02*
X2194Y513D01*
X2238Y513D02*
X2244Y513D01*
X2277Y513D02*
X2284Y513D01*
X2299Y513D02*
X2306Y513D01*
X2325Y513D02*
X2331Y513D01*
X2353Y513D02*
X2359Y513D01*
X2174Y512D02*
X2180Y512D01*
X2188Y512D02*
X2194Y512D01*
X2238Y512D02*
X2244Y512D01*
X2277Y512D02*
X2283Y512D01*
X2300Y512D02*
X2306Y512D01*
X2325Y512D02*
X2332Y512D01*
X2353Y512D02*
X2359Y512D01*
X2174Y511D02*
X2180Y511D01*
X2188Y511D02*
X2194Y511D01*
X2238Y511D02*
X2244Y511D01*
X2277Y511D02*
X2283Y511D01*
X2300Y511D02*
X2307Y511D01*
X2326Y511D02*
X2333Y511D01*
X2353Y511D02*
X2359Y511D01*
X2174Y510D02*
X2180Y510D01*
X2188Y510D02*
X2194Y510D01*
X2238Y510D02*
X2244Y510D01*
X2276Y510D02*
X2282Y510D01*
X2301Y510D02*
X2307Y510D01*
X2326Y510D02*
X2333Y510D01*
X2353Y510D02*
X2359Y510D01*
X2174Y509D02*
X2180Y509D01*
X2188Y509D02*
X2194Y509D01*
X2238Y509D02*
X2244Y509D01*
X2276Y509D02*
X2282Y509D01*
X2301Y509D02*
X2307Y509D01*
X2327Y509D02*
X2335Y509D01*
X2353Y509D02*
X2359Y509D01*
X2174Y508D02*
X2206Y508D01*
X2238Y508D02*
X2244Y508D01*
X2276Y508D02*
X2282Y508D01*
X2301Y508D02*
X2308Y508D01*
X2327Y508D02*
X2359Y508D01*
X2174Y507D02*
X2207Y507D01*
X2238Y507D02*
X2244Y507D01*
X2275Y507D02*
X2282Y507D01*
X2302Y507D02*
X2308Y507D01*
X2328Y507D02*
X2359Y507D01*
X2174Y506D02*
X2208Y506D01*
X2238Y506D02*
X2244Y506D01*
X2275Y506D02*
X2281Y506D01*
X2302Y506D02*
X2308Y506D01*
X2329Y506D02*
X2359Y506D01*
X2174Y505D02*
X2208Y505D01*
X2238Y505D02*
X2244Y505D01*
X2275Y505D02*
X2281Y505D01*
X2302Y505D02*
X2308Y505D01*
X2330Y505D02*
X2359Y505D01*
X2175Y504D02*
X2208Y504D01*
X2239Y504D02*
X2244Y504D01*
X2275Y504D02*
X2281Y504D01*
X2302Y504D02*
X2308Y504D01*
X2331Y504D02*
X2359Y504D01*
X2175Y503D02*
X2207Y503D01*
X2239Y503D02*
X2244Y503D01*
X2275Y503D02*
X2280Y503D01*
X2303Y503D02*
X2308Y503D01*
X2332Y503D02*
X2359Y503D01*
X2176Y502D02*
X2207Y502D01*
X2240Y502D02*
X2243Y502D01*
X2276Y502D02*
X2279Y502D01*
X2304Y502D02*
X2307Y502D01*
X2335Y502D02*
X2359Y502D01*
X1658Y445D02*
X1690Y445D01*
X1645Y444D02*
X1702Y444D01*
X1636Y443D02*
X1710Y443D01*
X1629Y442D02*
X1718Y442D01*
X1623Y441D02*
X1724Y441D01*
X1618Y440D02*
X1729Y440D01*
X1613Y439D02*
X1734Y439D01*
X1609Y438D02*
X1738Y438D01*
X1604Y437D02*
X1657Y437D01*
X1691Y437D02*
X1742Y437D01*
X1600Y436D02*
X1644Y436D01*
X1703Y436D02*
X1746Y436D01*
X1597Y435D02*
X1635Y435D01*
X1711Y435D02*
X1750Y435D01*
X1593Y434D02*
X1628Y434D01*
X1718Y434D02*
X1754Y434D01*
X1590Y433D02*
X1623Y433D01*
X1724Y433D02*
X1757Y433D01*
X1586Y432D02*
X1617Y432D01*
X1729Y432D02*
X1760Y432D01*
X1583Y431D02*
X1612Y431D01*
X1735Y431D02*
X1764Y431D01*
X1256Y430D02*
X1263Y430D01*
X1580Y430D02*
X1608Y430D01*
X1739Y430D02*
X1766Y430D01*
X2083Y430D02*
X2090Y430D01*
X1256Y429D02*
X1263Y429D01*
X1577Y429D02*
X1604Y429D01*
X1743Y429D02*
X1769Y429D01*
X2083Y429D02*
X2090Y429D01*
X1256Y428D02*
X1263Y428D01*
X1575Y428D02*
X1600Y428D01*
X1747Y428D02*
X1772Y428D01*
X2083Y428D02*
X2090Y428D01*
X1257Y427D02*
X1264Y427D01*
X1572Y427D02*
X1596Y427D01*
X1751Y427D02*
X1775Y427D01*
X2083Y427D02*
X2090Y427D01*
X1257Y426D02*
X1264Y426D01*
X1569Y426D02*
X1593Y426D01*
X1754Y426D02*
X1778Y426D01*
X2083Y426D02*
X2090Y426D01*
X1257Y425D02*
X1264Y425D01*
X1567Y425D02*
X1589Y425D01*
X1757Y425D02*
X1780Y425D01*
X2083Y425D02*
X2090Y425D01*
X1257Y424D02*
X1264Y424D01*
X1564Y424D02*
X1586Y424D01*
X1761Y424D02*
X1782Y424D01*
X2083Y424D02*
X2090Y424D01*
X1257Y423D02*
X1264Y423D01*
X1562Y423D02*
X1583Y423D01*
X1764Y423D02*
X1785Y423D01*
X2083Y423D02*
X2090Y423D01*
X1257Y422D02*
X1264Y422D01*
X1559Y422D02*
X1580Y422D01*
X1766Y422D02*
X1787Y422D01*
X2083Y422D02*
X2090Y422D01*
X1257Y421D02*
X1264Y421D01*
X1557Y421D02*
X1577Y421D01*
X1769Y421D02*
X1790Y421D01*
X2083Y421D02*
X2090Y421D01*
X1257Y420D02*
X1264Y420D01*
X1555Y420D02*
X1575Y420D01*
X1772Y420D02*
X1792Y420D01*
X2082Y420D02*
X2089Y420D01*
X1257Y419D02*
X1264Y419D01*
X1553Y419D02*
X1572Y419D01*
X1775Y419D02*
X1794Y419D01*
X2082Y419D02*
X2089Y419D01*
X1257Y418D02*
X1264Y418D01*
X1551Y418D02*
X1569Y418D01*
X1777Y418D02*
X1796Y418D01*
X2082Y418D02*
X2089Y418D01*
X1257Y417D02*
X1264Y417D01*
X1548Y417D02*
X1567Y417D01*
X1780Y417D02*
X1798Y417D01*
X2082Y417D02*
X2089Y417D01*
X1257Y416D02*
X1264Y416D01*
X1546Y416D02*
X1564Y416D01*
X1782Y416D02*
X1800Y416D01*
X2082Y416D02*
X2089Y416D01*
X1257Y415D02*
X1264Y415D01*
X1544Y415D02*
X1562Y415D01*
X1785Y415D02*
X1802Y415D01*
X2082Y415D02*
X2089Y415D01*
X1257Y414D02*
X1264Y414D01*
X1542Y414D02*
X1560Y414D01*
X1787Y414D02*
X1805Y414D01*
X2082Y414D02*
X2089Y414D01*
X1258Y413D02*
X1265Y413D01*
X1540Y413D02*
X1557Y413D01*
X1789Y413D02*
X1806Y413D01*
X2082Y413D02*
X2089Y413D01*
X1258Y412D02*
X1265Y412D01*
X1538Y412D02*
X1555Y412D01*
X1792Y412D02*
X1808Y412D01*
X2081Y412D02*
X2088Y412D01*
X1258Y411D02*
X1265Y411D01*
X1536Y411D02*
X1553Y411D01*
X1794Y411D02*
X1810Y411D01*
X2081Y411D02*
X2088Y411D01*
X1258Y410D02*
X1265Y410D01*
X1535Y410D02*
X1551Y410D01*
X1796Y410D02*
X1812Y410D01*
X2081Y410D02*
X2088Y410D01*
X1258Y409D02*
X1265Y409D01*
X1533Y409D02*
X1549Y409D01*
X1798Y409D02*
X1814Y409D01*
X2081Y409D02*
X2088Y409D01*
X1258Y408D02*
X1265Y408D01*
X1531Y408D02*
X1547Y408D01*
X1800Y408D02*
X1816Y408D01*
X2081Y408D02*
X2088Y408D01*
X1259Y407D02*
X1266Y407D01*
X1529Y407D02*
X1545Y407D01*
X1802Y407D02*
X1818Y407D01*
X2080Y407D02*
X2087Y407D01*
X1259Y406D02*
X1266Y406D01*
X1528Y406D02*
X1543Y406D01*
X1804Y406D02*
X1819Y406D01*
X2080Y406D02*
X2087Y406D01*
X1259Y405D02*
X1266Y405D01*
X1526Y405D02*
X1541Y405D01*
X1806Y405D02*
X1821Y405D01*
X2080Y405D02*
X2087Y405D01*
X1259Y404D02*
X1266Y404D01*
X1524Y404D02*
X1539Y404D01*
X1808Y404D02*
X1823Y404D01*
X2080Y404D02*
X2087Y404D01*
X1259Y403D02*
X1266Y403D01*
X1522Y403D02*
X1537Y403D01*
X1810Y403D02*
X1824Y403D01*
X2079Y403D02*
X2087Y403D01*
X1260Y402D02*
X1267Y402D01*
X1521Y402D02*
X1535Y402D01*
X1811Y402D02*
X1826Y402D01*
X2079Y402D02*
X2086Y402D01*
X1260Y401D02*
X1267Y401D01*
X1519Y401D02*
X1534Y401D01*
X1813Y401D02*
X1828Y401D01*
X2079Y401D02*
X2086Y401D01*
X1260Y400D02*
X1267Y400D01*
X1518Y400D02*
X1532Y400D01*
X1815Y400D02*
X1829Y400D01*
X2079Y400D02*
X2086Y400D01*
X1260Y399D02*
X1267Y399D01*
X1516Y399D02*
X1530Y399D01*
X1817Y399D02*
X1831Y399D01*
X2078Y399D02*
X2085Y399D01*
X1261Y398D02*
X1268Y398D01*
X1514Y398D02*
X1528Y398D01*
X1818Y398D02*
X1832Y398D01*
X2078Y398D02*
X2085Y398D01*
X1261Y397D02*
X1268Y397D01*
X1513Y397D02*
X1527Y397D01*
X1820Y397D02*
X1834Y397D01*
X2078Y397D02*
X2085Y397D01*
X1261Y396D02*
X1268Y396D01*
X1511Y396D02*
X1525Y396D01*
X1822Y396D02*
X1835Y396D01*
X2077Y396D02*
X2085Y396D01*
X1261Y395D02*
X1269Y395D01*
X1510Y395D02*
X1523Y395D01*
X1823Y395D02*
X1837Y395D01*
X2077Y395D02*
X2084Y395D01*
X1262Y394D02*
X1269Y394D01*
X1508Y394D02*
X1522Y394D01*
X1825Y394D02*
X1838Y394D01*
X2077Y394D02*
X2084Y394D01*
X1262Y393D02*
X1269Y393D01*
X1507Y393D02*
X1520Y393D01*
X1827Y393D02*
X1840Y393D01*
X2076Y393D02*
X2084Y393D01*
X1262Y392D02*
X1270Y392D01*
X1506Y392D02*
X1519Y392D01*
X1828Y392D02*
X1841Y392D01*
X2076Y392D02*
X2083Y392D01*
X1263Y391D02*
X1270Y391D01*
X1504Y391D02*
X1517Y391D01*
X1830Y391D02*
X1843Y391D01*
X2076Y391D02*
X2083Y391D01*
X1263Y390D02*
X1270Y390D01*
X1503Y390D02*
X1516Y390D01*
X1831Y390D02*
X1844Y390D01*
X2075Y390D02*
X2083Y390D01*
X1263Y389D02*
X1271Y389D01*
X1501Y389D02*
X1514Y389D01*
X1833Y389D02*
X1845Y389D01*
X2075Y389D02*
X2082Y389D01*
X1264Y388D02*
X1271Y388D01*
X1500Y388D02*
X1513Y388D01*
X1834Y388D02*
X1847Y388D01*
X2074Y388D02*
X2082Y388D01*
X1264Y387D02*
X1271Y387D01*
X1499Y387D02*
X1511Y387D01*
X1835Y387D02*
X1848Y387D01*
X2074Y387D02*
X2081Y387D01*
X1264Y386D02*
X1272Y386D01*
X1497Y386D02*
X1510Y386D01*
X1837Y386D02*
X1849Y386D01*
X2074Y386D02*
X2081Y386D01*
X1265Y385D02*
X1272Y385D01*
X1496Y385D02*
X1508Y385D01*
X1838Y385D02*
X1851Y385D01*
X2073Y385D02*
X2081Y385D01*
X1265Y384D02*
X1273Y384D01*
X1495Y384D02*
X1507Y384D01*
X1840Y384D02*
X1852Y384D01*
X2073Y384D02*
X2080Y384D01*
X1266Y383D02*
X1273Y383D01*
X1493Y383D02*
X1506Y383D01*
X1841Y383D02*
X1853Y383D01*
X2072Y383D02*
X2080Y383D01*
X1266Y382D02*
X1273Y382D01*
X1492Y382D02*
X1504Y382D01*
X1842Y382D02*
X1855Y382D01*
X2072Y382D02*
X2079Y382D01*
X1267Y381D02*
X1274Y381D01*
X1491Y381D02*
X1503Y381D01*
X1844Y381D02*
X1856Y381D01*
X2071Y381D02*
X2079Y381D01*
X1267Y380D02*
X1274Y380D01*
X1490Y380D02*
X1502Y380D01*
X1845Y380D02*
X1857Y380D01*
X2071Y380D02*
X2078Y380D01*
X1267Y379D02*
X1275Y379D01*
X1489Y379D02*
X1500Y379D01*
X1846Y379D02*
X1858Y379D01*
X2070Y379D02*
X2078Y379D01*
X1268Y378D02*
X1275Y378D01*
X1487Y378D02*
X1499Y378D01*
X1848Y378D02*
X1859Y378D01*
X2070Y378D02*
X2077Y378D01*
X1268Y377D02*
X1276Y377D01*
X1486Y377D02*
X1498Y377D01*
X1849Y377D02*
X1861Y377D01*
X2069Y377D02*
X2077Y377D01*
X1269Y376D02*
X1276Y376D01*
X1485Y376D02*
X1496Y376D01*
X1850Y376D02*
X1862Y376D01*
X2069Y376D02*
X2076Y376D01*
X1269Y375D02*
X1277Y375D01*
X1484Y375D02*
X1495Y375D01*
X1852Y375D02*
X1863Y375D01*
X2068Y375D02*
X2076Y375D01*
X1270Y374D02*
X1277Y374D01*
X1483Y374D02*
X1494Y374D01*
X1853Y374D02*
X1864Y374D01*
X2068Y374D02*
X2075Y374D01*
X1270Y373D02*
X1278Y373D01*
X1481Y373D02*
X1493Y373D01*
X1854Y373D02*
X1865Y373D01*
X2067Y373D02*
X2075Y373D01*
X1271Y372D02*
X1279Y372D01*
X1480Y372D02*
X1492Y372D01*
X1855Y372D02*
X1867Y372D01*
X2066Y372D02*
X2074Y372D01*
X1271Y371D02*
X1279Y371D01*
X1479Y371D02*
X1490Y371D01*
X1856Y371D02*
X1868Y371D01*
X2066Y371D02*
X2074Y371D01*
X1272Y370D02*
X1280Y370D01*
X1478Y370D02*
X1489Y370D01*
X1858Y370D02*
X1869Y370D01*
X2065Y370D02*
X2073Y370D01*
X1272Y369D02*
X1280Y369D01*
X1477Y369D02*
X1488Y369D01*
X1859Y369D02*
X1870Y369D01*
X2064Y369D02*
X2073Y369D01*
X1273Y368D02*
X1281Y368D01*
X1476Y368D02*
X1487Y368D01*
X1860Y368D02*
X1871Y368D01*
X2064Y368D02*
X2072Y368D01*
X1274Y367D02*
X1282Y367D01*
X1475Y367D02*
X1486Y367D01*
X1861Y367D02*
X1872Y367D01*
X2063Y367D02*
X2071Y367D01*
X1274Y366D02*
X1282Y366D01*
X1474Y366D02*
X1485Y366D01*
X1862Y366D02*
X1873Y366D01*
X2062Y366D02*
X2071Y366D01*
X1275Y365D02*
X1283Y365D01*
X1473Y365D02*
X1483Y365D01*
X1863Y365D02*
X1874Y365D01*
X2062Y365D02*
X2070Y365D01*
X1276Y364D02*
X1284Y364D01*
X1472Y364D02*
X1482Y364D01*
X1864Y364D02*
X1875Y364D01*
X2061Y364D02*
X2069Y364D01*
X1276Y363D02*
X1284Y363D01*
X1471Y363D02*
X1481Y363D01*
X1865Y363D02*
X1876Y363D01*
X2060Y363D02*
X2069Y363D01*
X1277Y362D02*
X1285Y362D01*
X1470Y362D02*
X1480Y362D01*
X1867Y362D02*
X1877Y362D01*
X2059Y362D02*
X2068Y362D01*
X1278Y361D02*
X1286Y361D01*
X1469Y361D02*
X1479Y361D01*
X1868Y361D02*
X1878Y361D01*
X2059Y361D02*
X2067Y361D01*
X1278Y360D02*
X1287Y360D01*
X1468Y360D02*
X1478Y360D01*
X1869Y360D02*
X1879Y360D01*
X2058Y360D02*
X2067Y360D01*
X1279Y359D02*
X1287Y359D01*
X1467Y359D02*
X1477Y359D01*
X1870Y359D02*
X1880Y359D01*
X2057Y359D02*
X2066Y359D01*
X1280Y358D02*
X1288Y358D01*
X1466Y358D02*
X1476Y358D01*
X1871Y358D02*
X1881Y358D01*
X2056Y358D02*
X2065Y358D01*
X1280Y357D02*
X1289Y357D01*
X1465Y357D02*
X1475Y357D01*
X1872Y357D02*
X1882Y357D01*
X2055Y357D02*
X2064Y357D01*
X1281Y356D02*
X1290Y356D01*
X1464Y356D02*
X1474Y356D01*
X1873Y356D02*
X1883Y356D01*
X2054Y356D02*
X2064Y356D01*
X1282Y355D02*
X1291Y355D01*
X1463Y355D02*
X1473Y355D01*
X1874Y355D02*
X1884Y355D01*
X2054Y355D02*
X2063Y355D01*
X1283Y354D02*
X1292Y354D01*
X1462Y354D02*
X1472Y354D01*
X1875Y354D02*
X1885Y354D01*
X2053Y354D02*
X2062Y354D01*
X1283Y353D02*
X1293Y353D01*
X1461Y353D02*
X1471Y353D01*
X1876Y353D02*
X1886Y353D01*
X2052Y353D02*
X2061Y353D01*
X1284Y352D02*
X1293Y352D01*
X1460Y352D02*
X1470Y352D01*
X1877Y352D02*
X1887Y352D01*
X2051Y352D02*
X2060Y352D01*
X1285Y351D02*
X1294Y351D01*
X1459Y351D02*
X1469Y351D01*
X1878Y351D02*
X1888Y351D01*
X2050Y351D02*
X2059Y351D01*
X1286Y350D02*
X1295Y350D01*
X1458Y350D02*
X1468Y350D01*
X1879Y350D02*
X1889Y350D01*
X2049Y350D02*
X2058Y350D01*
X1287Y349D02*
X1296Y349D01*
X1457Y349D02*
X1467Y349D01*
X1880Y349D02*
X1890Y349D01*
X2048Y349D02*
X2058Y349D01*
X1288Y348D02*
X1297Y348D01*
X1456Y348D02*
X1466Y348D01*
X1881Y348D02*
X1891Y348D01*
X2047Y348D02*
X2057Y348D01*
X1289Y347D02*
X1298Y347D01*
X1455Y347D02*
X1465Y347D01*
X1882Y347D02*
X1892Y347D01*
X2046Y347D02*
X2056Y347D01*
X1290Y346D02*
X1299Y346D01*
X1454Y346D02*
X1464Y346D01*
X1883Y346D02*
X1893Y346D01*
X2044Y346D02*
X2055Y346D01*
X1291Y345D02*
X1301Y345D01*
X1453Y345D02*
X1463Y345D01*
X1884Y345D02*
X1894Y345D01*
X2043Y345D02*
X2054Y345D01*
X1292Y344D02*
X1302Y344D01*
X1452Y344D02*
X1462Y344D01*
X1885Y344D02*
X1895Y344D01*
X2042Y344D02*
X2053Y344D01*
X1293Y343D02*
X1303Y343D01*
X1450Y343D02*
X1461Y343D01*
X1886Y343D02*
X1897Y343D01*
X2041Y343D02*
X2052Y343D01*
X1294Y342D02*
X1304Y342D01*
X1449Y342D02*
X1460Y342D01*
X1887Y342D02*
X1898Y342D01*
X2040Y342D02*
X2051Y342D01*
X1295Y341D02*
X1305Y341D01*
X1448Y341D02*
X1459Y341D01*
X1888Y341D02*
X1899Y341D01*
X2038Y341D02*
X2049Y341D01*
X1296Y340D02*
X1307Y340D01*
X1447Y340D02*
X1458Y340D01*
X1889Y340D02*
X1901Y340D01*
X2037Y340D02*
X2048Y340D01*
X1297Y339D02*
X1308Y339D01*
X1445Y339D02*
X1457Y339D01*
X1890Y339D02*
X1902Y339D01*
X2036Y339D02*
X2047Y339D01*
X1298Y338D02*
X1309Y338D01*
X1444Y338D02*
X1456Y338D01*
X1891Y338D02*
X1903Y338D01*
X2034Y338D02*
X2046Y338D01*
X1299Y337D02*
X1311Y337D01*
X1443Y337D02*
X1455Y337D01*
X1892Y337D02*
X1905Y337D01*
X2033Y337D02*
X2045Y337D01*
X1300Y336D02*
X1312Y336D01*
X1441Y336D02*
X1453Y336D01*
X1894Y336D02*
X1906Y336D01*
X2031Y336D02*
X2044Y336D01*
X1301Y335D02*
X1314Y335D01*
X1440Y335D02*
X1452Y335D01*
X1895Y335D02*
X1908Y335D01*
X2029Y335D02*
X2042Y335D01*
X1303Y334D02*
X1315Y334D01*
X1438Y334D02*
X1451Y334D01*
X1896Y334D02*
X1909Y334D01*
X2028Y334D02*
X2041Y334D01*
X1304Y333D02*
X1317Y333D01*
X1437Y333D02*
X1450Y333D01*
X1898Y333D02*
X1911Y333D01*
X2026Y333D02*
X2040Y333D01*
X1305Y332D02*
X1318Y332D01*
X1435Y332D02*
X1448Y332D01*
X1899Y332D02*
X1913Y332D01*
X2024Y332D02*
X2038Y332D01*
X1307Y331D02*
X1320Y331D01*
X1434Y331D02*
X1447Y331D01*
X1900Y331D02*
X1915Y331D01*
X2022Y331D02*
X2037Y331D01*
X1308Y330D02*
X1322Y330D01*
X1432Y330D02*
X1446Y330D01*
X1902Y330D02*
X1917Y330D01*
X2021Y330D02*
X2035Y330D01*
X1309Y329D02*
X1324Y329D01*
X1430Y329D02*
X1444Y329D01*
X1904Y329D02*
X1918Y329D01*
X2019Y329D02*
X2034Y329D01*
X1311Y328D02*
X1326Y328D01*
X1428Y328D02*
X1442Y328D01*
X1905Y328D02*
X1921Y328D01*
X2016Y328D02*
X2032Y328D01*
X1312Y327D02*
X1328Y327D01*
X1426Y327D02*
X1441Y327D01*
X1907Y327D02*
X1923Y327D01*
X2014Y327D02*
X2031Y327D01*
X1314Y326D02*
X1330Y326D01*
X1424Y326D02*
X1439Y326D01*
X1909Y326D02*
X1925Y326D01*
X2012Y326D02*
X2029Y326D01*
X1316Y325D02*
X1332Y325D01*
X1422Y325D02*
X1438Y325D01*
X1910Y325D02*
X1928Y325D01*
X2009Y325D02*
X2027Y325D01*
X1317Y324D02*
X1335Y324D01*
X1419Y324D02*
X1436Y324D01*
X1912Y324D02*
X1931Y324D01*
X2006Y324D02*
X2025Y324D01*
X1319Y323D02*
X1337Y323D01*
X1417Y323D02*
X1434Y323D01*
X1914Y323D02*
X1933Y323D01*
X2003Y323D02*
X2023Y323D01*
X1321Y322D02*
X1340Y322D01*
X1414Y322D02*
X1432Y322D01*
X1916Y322D02*
X1937Y322D01*
X2000Y322D02*
X2021Y322D01*
X1323Y321D02*
X1343Y321D01*
X1411Y321D02*
X1430Y321D01*
X1918Y321D02*
X1940Y321D01*
X1996Y321D02*
X2019Y321D01*
X1325Y320D02*
X1347Y320D01*
X1407Y320D02*
X1428Y320D01*
X1921Y320D02*
X1945Y320D01*
X1992Y320D02*
X2017Y320D01*
X1327Y319D02*
X1351Y319D01*
X1404Y319D02*
X1426Y319D01*
X1923Y319D02*
X1950Y319D01*
X1987Y319D02*
X2015Y319D01*
X1329Y318D02*
X1355Y318D01*
X1399Y318D02*
X1424Y318D01*
X1925Y318D02*
X1958Y318D01*
X1978Y318D02*
X2012Y318D01*
X1332Y317D02*
X1361Y317D01*
X1393Y317D02*
X1421Y317D01*
X1928Y317D02*
X2010Y317D01*
X1334Y316D02*
X1374Y316D01*
X1381Y316D02*
X1419Y316D01*
X1931Y316D02*
X2007Y316D01*
X1337Y315D02*
X1416Y315D01*
X1934Y315D02*
X2004Y315D01*
X1340Y314D02*
X1413Y314D01*
X1938Y314D02*
X2000Y314D01*
X1343Y313D02*
X1410Y313D01*
X1942Y313D02*
X1996Y313D01*
X1347Y312D02*
X1406Y312D01*
X1947Y312D02*
X1991Y312D01*
X1351Y311D02*
X1402Y311D01*
X1953Y311D02*
X1986Y311D01*
X1356Y310D02*
X1397Y310D01*
X1964Y310D02*
X1974Y310D01*
X1363Y309D02*
X1390Y309D01*
D02*
G04 End of Silk0*
M02*